<svg width="20" height="20" viewBox="0 0 20 20" fill="none" xmlns="http://www.w3.org/2000/svg">
<path d="M17.6404 6.90714C17.5263 6.80046 17.3906 6.71585 17.241 6.65823C17.0915 6.6006 16.9311 6.5711 16.7692 6.57143H14.3077V6C14.3077 4.93913 13.8538 3.92172 13.046 3.17157C12.2381 2.42143 11.1425 2 10 2C8.85753 2 7.76185 2.42143 6.954 3.17157C6.14615 3.92172 5.69231 4.93913 5.69231 6V6.57143H3.23077C2.90435 6.57143 2.5913 6.69184 2.36048 6.90616C2.12967 7.12049 2 7.41118 2 7.71429V15.4286C2 16.8214 3.26923 18 4.76923 18H15.2308C15.9563 18.0002 16.6532 17.7368 17.1723 17.2661C17.4335 17.0347 17.6416 16.7565 17.7838 16.4483C17.9261 16.1402 17.9996 15.8085 18 15.4732V7.71429C18.0005 7.56435 17.969 7.41582 17.9072 7.27727C17.8455 7.13873 17.7548 7.01292 17.6404 6.90714ZM6.92308 6C6.92308 5.24224 7.24725 4.51551 7.82428 3.97969C8.40132 3.44388 9.18395 3.14286 10 3.14286C10.816 3.14286 11.5987 3.44388 12.1757 3.97969C12.7527 4.51551 13.0769 5.24224 13.0769 6V6.57143H6.92308V6Z" fill="white"/>
</svg>
