<svg width="20" height="20" viewBox="0 0 20 20" fill="none" xmlns="http://www.w3.org/2000/svg">
<path d="M1.38867 4.72217H18.6109V15.2777H1.38867V4.72217Z" fill="#1E50A0"/>
<path d="M15.0647 10.818L15.3222 9.98468L15.5797 10.818L14.9055 10.3027L15.7388 10.303L15.0647 10.818ZM5.69439 13.0552L5.26161 13.4655L5.30467 12.8627L4.72217 12.7716L5.20828 12.43L4.91467 11.9061L5.478 12.083L5.69439 11.5211L5.91078 12.083L6.47411 11.9061L6.1805 12.43L6.66661 12.7716L6.08411 12.8627L6.12717 13.4655L5.69439 13.0552ZM12.3611 9.83912L12.0519 10.1322L12.0827 9.70162L11.6666 9.63634L12.0138 9.39245L11.8041 9.01829L12.2066 9.14468L12.3611 8.74329L12.5155 9.14468L12.918 9.01829L12.7083 9.39245L13.0555 9.63634L12.6394 9.70162L12.6702 10.1322L12.3611 9.83912ZM16.5277 9.00579L16.2186 9.29884L16.2494 8.86829L15.8333 8.80301L16.1805 8.55912L15.9708 8.18495L16.3733 8.31134L16.5277 7.90995L16.6822 8.31134L17.0847 8.18495L16.8749 8.55912L17.2222 8.80301L16.8061 8.86829L16.8369 9.29884L16.5277 9.00579ZM14.3055 7.33912L13.9963 7.63218L14.0272 7.20162L13.6111 7.13634L13.9583 6.89245L13.7486 6.51829L14.1511 6.64467L14.3055 6.24329L14.4599 6.64467L14.8624 6.51829L14.6527 6.89245L14.9999 7.13634L14.5838 7.20162L14.6147 7.63218L14.3055 7.33912ZM14.3055 13.1725L13.9963 13.4655L14.0272 13.035L13.6111 12.9697L13.9583 12.7258L13.7486 12.3516L14.1511 12.478L14.3055 12.0766L14.4599 12.478L14.8624 12.3516L14.6527 12.7258L14.9999 12.9697L14.5838 13.035L14.6147 13.4655L14.3055 13.1725Z" fill="white" stroke="white" stroke-width="0.25" stroke-linecap="round" stroke-linejoin="round"/>
<path d="M2.74623 5H1.6665V5.64778L8.92011 10H9.99984V9.35222L2.74623 5Z" fill="white"/>
<path d="M9.99984 5.64778V5H8.92011L1.6665 9.35222V10H2.74623L9.99984 5.64778Z" fill="white"/>
<path d="M1.6665 6.66663H9.99984V8.33329H1.6665V6.66663Z" fill="white"/>
<path d="M5 5H6.66667V10H5V5Z" fill="white"/>
<path d="M5.55566 5H6.11122V10H5.55566V5Z" fill="#D22F27"/>
<path d="M1.6665 7.22222H9.99984V7.77778H1.6665V7.22222ZM9.99984 9.35222L8.30178 8.33333H7.22206L9.99984 10V9.35222ZM9.99984 5H8.92011L6.6665 6.35222V6.66667H7.22206L9.99984 5ZM1.6665 5.64778L3.36456 6.66667H4.44428L1.6665 5V5.64778ZM1.6665 10H2.74623L4.99984 8.64778V8.33333H4.44428L1.6665 10Z" fill="#D22F27"/>
<path d="M1.38867 4.72217H18.6109V15.2777H1.38867V4.72217Z" stroke="black" stroke-width="0.5" stroke-linecap="round" stroke-linejoin="round"/>
</svg>
