<svg width="20" height="20" viewBox="0 0 20 20" fill="none" xmlns="http://www.w3.org/2000/svg">
<path d="M16.0833 4.75831C15.7008 4.37164 15.2452 4.06493 14.743 3.85605C14.2408 3.64717 13.7021 3.54029 13.1583 3.54164C12.6144 3.54029 12.0757 3.64717 11.5735 3.85605C11.0713 4.06493 10.6157 4.37164 10.2333 4.75831L9.99993 4.99997L9.76659 4.76664C8.99302 3.99314 7.94387 3.5586 6.84993 3.5586C5.75598 3.5586 4.70683 3.99314 3.93326 4.76664C3.16981 5.54551 2.74219 6.59267 2.74219 7.68331C2.74219 8.77394 3.16981 9.8211 3.93326 10.6L9.57493 16.2583C9.69211 16.3753 9.85097 16.4411 10.0166 16.4411C10.1822 16.4411 10.3411 16.3753 10.4583 16.2583L16.0999 10.6C16.8637 9.81855 17.2899 8.76839 17.2868 7.67573C17.2836 6.58307 16.8514 5.53536 16.0833 4.75831Z" fill="#D22F27"/>
</svg>
