<svg width="20" height="20" viewBox="0 0 20 20" fill="none" xmlns="http://www.w3.org/2000/svg">
<path d="M9.99984 10.6667C11.8408 10.6667 13.3332 9.17428 13.3332 7.33333C13.3332 5.49238 11.8408 4 9.99984 4C8.15889 4 6.6665 5.49238 6.6665 7.33333C6.6665 9.17428 8.15889 10.6667 9.99984 10.6667Z" fill="white" stroke="white" stroke-width="2" stroke-linecap="round" stroke-linejoin="round"/>
<path d="M15.3332 16C15.3332 14.5855 14.7713 13.229 13.7711 12.2288C12.7709 11.2286 11.4143 10.6667 9.99984 10.6667C8.58535 10.6667 7.22879 11.2286 6.2286 12.2288C5.22841 13.229 4.6665 14.5855 4.6665 16" stroke="white" stroke-width="2" stroke-linecap="round" stroke-linejoin="round"/>
<path d="M9.99984 10.6667C8.58535 10.6667 7.2288 11.2286 6.2286 12.2288C5.22841 13.229 4.6665 14.5855 4.6665 16H15.3332C15.3332 14.5855 14.7713 13.229 13.7711 12.2288C12.7709 11.2286 11.4143 10.6667 9.99984 10.6667Z" fill="white" stroke="white" stroke-width="2" stroke-linecap="round" stroke-linejoin="round"/>
</svg>
