<svg width="20" height="20" viewBox="0 0 20 20" fill="none" xmlns="http://www.w3.org/2000/svg">
<path d="M11.223 3C8.03123 3 5.44557 5.53233 5.44557 8.65528C5.44396 9.6841 5.73044 10.6937 6.27388 11.5743L3.47283 14.3162L3.48258 14.3258C3.18361 14.6059 3 15.0035 3 15.4529C2.99982 16.3212 3.70645 17.0002 4.59253 17C5.04513 16.9998 5.4499 16.8226 5.73876 16.5341L5.7458 16.541L8.63585 13.7118C9.43872 14.1062 10.3247 14.3112 11.223 14.3106C14.4149 14.3106 17 11.7786 17 8.65528C17 5.53233 14.4147 3 11.223 3ZM11.258 12.0868C9.26304 12.0868 7.64705 10.5044 7.64705 8.55225C7.64705 6.60047 9.26304 5.0177 11.258 5.0177C13.2529 5.0177 14.8686 6.60029 14.8686 8.55225C14.8687 10.5044 13.2529 12.0868 11.258 12.0868Z" fill="black"/>
</svg>
