<svg width="26" height="26" viewBox="0 0 26 26" fill="none" xmlns="http://www.w3.org/2000/svg">
<path d="M14.8013 0C9.05622 0 4.40202 4.55819 4.40202 10.1795C4.39913 12.0314 4.9148 13.8486 5.89298 15.4337L0.851092 20.3692L0.86864 20.3864C0.330493 20.8906 6.22565e-08 21.6063 6.22565e-08 22.4153C-0.000324906 23.9781 1.2716 25.2003 2.86655 25.2C3.68124 25.1997 4.40982 24.8806 4.92977 24.3615L4.94244 24.3739L10.1445 19.2813C11.5897 19.9911 13.1844 20.3602 14.8013 20.359C20.5468 20.359 25.2 15.8015 25.2 10.1795C25.2 4.55819 20.5465 0 14.8013 0ZM14.8644 16.3562C11.2735 16.3562 8.36469 13.5079 8.36469 9.99405C8.36469 6.48085 11.2735 3.63186 14.8644 3.63186C18.4553 3.63186 21.3634 6.48053 21.3634 9.99405C21.3637 13.5079 18.4553 16.3562 14.8644 16.3562Z" fill="white"/>
</svg>
