<svg width="20" height="20" viewBox="0 0 20 20" fill="none" xmlns="http://www.w3.org/2000/svg">
<path d="M15.0216 3.25162C14.959 3.14317 14.8728 3.05022 14.7693 2.97967C14.6659 2.90912 14.5479 2.86279 14.4241 2.84412C14.0824 2.84412 13.7132 3.11412 13.3182 3.40495C13.2205 3.47717 13.1213 3.54884 13.0207 3.61995C12.5691 3.93412 12.0507 4.21995 11.6074 4.30995C10.9157 4.45162 10.1216 4.25245 9.48491 3.96828C8.75991 3.63412 8.34074 4.40328 8.01657 4.99828C7.95574 5.10912 7.89824 5.21495 7.84324 5.30578C7.60157 5.69995 7.29741 6.16995 6.95157 6.64412C6.81357 6.63142 6.67458 6.65333 6.54719 6.70788C6.41979 6.76243 6.30801 6.84789 6.22196 6.95652C6.13592 7.06516 6.07832 7.19354 6.05439 7.33004C6.03046 7.46654 6.04095 7.60686 6.08491 7.73828C5.82824 8.05328 5.58463 8.35523 5.35407 8.64412C5.19418 8.59898 5.02445 8.60268 4.86667 8.65472C4.70889 8.70676 4.57027 8.80477 4.4686 8.93618C4.36694 9.06758 4.30687 9.22637 4.29611 9.39216C4.28536 9.55796 4.32441 9.72318 4.40824 9.86662C3.51491 11.0608 2.89991 12.0316 2.54491 12.8958C2.24491 13.6291 2.11657 14.3149 2.17241 15.0141C2.22824 15.7033 2.45741 16.3449 2.77824 16.9941C3.21324 17.8733 4.27991 18.1141 5.06074 17.6633L17.3291 10.5799C17.7119 10.3589 17.9912 9.9949 18.1056 9.56795C18.22 9.14099 18.1601 8.68608 17.9391 8.30328L17.5224 7.58162L12.4707 10.4983C12.2794 10.607 12.0529 10.6357 11.8405 10.5781C11.6282 10.5204 11.4472 10.3811 11.3372 10.1905C11.2271 9.99995 11.197 9.7736 11.2532 9.56085C11.3095 9.3481 11.4476 9.16624 11.6374 9.05495L16.6891 6.13828L15.0216 3.25162Z" fill="white"/>
</svg>
